<svg width="27" height="27" viewBox="0 0 27 27" fill="none" xmlns="http://www.w3.org/2000/svg">
<path d="M3.34125 14.535C3.0091 14.7346 2.73412 15.0165 2.54294 15.3535C2.35175 15.6906 2.25085 16.0713 2.25 16.4588V20.1038C2.25085 20.4912 2.35175 20.8719 2.54294 21.209C2.73412 21.546 3.0091 21.8279 3.34125 22.0275L6.71625 24.0525C7.0662 24.2627 7.46675 24.3738 7.875 24.3738C8.28325 24.3738 8.6838 24.2627 9.03375 24.0525L13.5 21.375V15.1875L7.875 11.8125L3.34125 14.535Z" stroke="#E8871E" stroke-width="2" stroke-linecap="round" stroke-linejoin="round"/>
<path d="M7.87498 18.5625L2.54248 15.3562" stroke="#E8871E" stroke-width="2" stroke-linecap="round" stroke-linejoin="round"/>
<path d="M7.875 18.5625L13.5 15.1875" stroke="#E8871E" stroke-width="2" stroke-linecap="round" stroke-linejoin="round"/>
<path d="M7.875 18.5625V24.3788" stroke="#E8871E" stroke-width="2" stroke-linecap="round" stroke-linejoin="round"/>
<path d="M13.5 15.1875V21.375L17.9663 24.0525C18.3162 24.2627 18.7168 24.3738 19.125 24.3738C19.5332 24.3738 19.9338 24.2627 20.2838 24.0525L23.6588 22.0275C23.9909 21.8279 24.2659 21.546 24.4571 21.209C24.6482 20.8719 24.7492 20.4912 24.75 20.1038V16.4588C24.7492 16.0713 24.6482 15.6906 24.4571 15.3535C24.2659 15.0165 23.9909 14.7346 23.6588 14.535L19.125 11.8125L13.5 15.1875Z" stroke="#E8871E" stroke-width="2" stroke-linecap="round" stroke-linejoin="round"/>
<path d="M19.125 18.5625L13.5 15.1875" stroke="#E8871E" stroke-width="2" stroke-linecap="round" stroke-linejoin="round"/>
<path d="M19.125 18.5625L24.4575 15.3562" stroke="#E8871E" stroke-width="2" stroke-linecap="round" stroke-linejoin="round"/>
<path d="M19.125 18.5625V24.3788" stroke="#E8871E" stroke-width="2" stroke-linecap="round" stroke-linejoin="round"/>
<path d="M8.96625 4.97254C8.6341 5.1721 8.35912 5.45405 8.16794 5.79108C7.97675 6.12811 7.87585 6.50881 7.875 6.89629V11.8125L13.5 15.1875L19.125 11.8125V6.89629C19.1242 6.50881 19.0232 6.12811 18.8321 5.79108C18.6409 5.45405 18.3659 5.1721 18.0338 4.97254L14.6587 2.94754C14.3088 2.73729 13.9082 2.62622 13.5 2.62622C13.0918 2.62622 12.6912 2.73729 12.3413 2.94754L8.96625 4.97254Z" stroke="#E8871E" stroke-width="2" stroke-linecap="round" stroke-linejoin="round"/>
<path d="M13.5 8.99995L8.16748 5.7937" stroke="#E8871E" stroke-width="2" stroke-linecap="round" stroke-linejoin="round"/>
<path d="M13.5 8.99995L18.8325 5.7937" stroke="#E8871E" stroke-width="2" stroke-linecap="round" stroke-linejoin="round"/>
<path d="M13.5 15.1875V9" stroke="#E8871E" stroke-width="2" stroke-linecap="round" stroke-linejoin="round"/>
</svg>
