<svg width="130" height="102" viewBox="0 0 130 102" fill="none" xmlns="http://www.w3.org/2000/svg">
<path d="M9.024 84H1.536L9.088 36.384H16.576L13.376 56.672C16.128 53.024 19.136 51.424 23.296 51.424C30.4 51.424 35.008 57.184 33.792 64.608L30.72 84H23.232L26.048 66.4C26.88 61.216 24.704 58.208 20.352 58.208C15.744 58.208 12.544 61.472 11.648 67.04L9.024 84ZM48.2015 45.984C45.8975 45.984 44.2975 44.256 44.2975 42.08C44.2975 39.264 46.7935 36.704 49.6735 36.704C51.9135 36.704 53.5775 38.368 53.5775 40.608C53.5775 43.36 51.0175 45.984 48.2015 45.984ZM38.4735 84L43.4655 52.384H50.9535L45.9615 84H38.4735ZM78.356 52.192L77.204 59.232H74.388C68.948 59.232 64.98 62.304 64.02 68.384L61.524 84H54.036L59.028 52.384H66.004L65.748 57.248C67.476 53.92 70.804 51.808 74.9 51.808C76.052 51.808 77.268 51.936 78.356 52.192ZM77.92 70.432C77.92 59.872 86.176 51.552 96.48 51.552C105.504 51.552 111.584 57.312 111.584 65.888C111.584 76.448 103.392 84.768 93.024 84.768C84 84.768 77.92 79.008 77.92 70.432ZM85.6 69.856C85.6 74.848 88.608 78.112 93.472 78.112C99.232 78.112 103.904 72.928 103.904 66.464C103.904 61.408 100.896 58.144 96.096 58.144C90.336 58.144 85.6 63.328 85.6 69.856Z" fill="#FFF9ED"/>
<path d="M92.5 22.9997C72 48 73 14.4997 57 32.2116" stroke="#E8871E" stroke-width="5" stroke-linecap="round"/>
<path d="M54.0721 42.2634L54.0666 42.2839L54.0629 42.3049C53.8176 43.6779 52.8791 44.7798 51.6405 45.4572C50.3983 46.1364 48.905 46.3588 47.6294 46.017C45.1631 45.3562 44.037 42.596 44.7924 39.7769C45.5253 37.0417 48.2083 35.4301 50.7478 36.1105C53.2872 36.7909 54.805 39.5282 54.0721 42.2634Z" fill="#E8871E" stroke="#E8871E"/>
<path d="M101.204 22.2301L100.46 13.7775L92.0078 14.521" stroke="#E8871E" stroke-width="4" stroke-linecap="round" stroke-linejoin="round"/>
</svg>
