<svg width="1694" height="1838" viewBox="0 0 1694 1838" fill="none" xmlns="http://www.w3.org/2000/svg">
<rect width="1694" height="1838" fill="white"/>
<rect y="988" width="1694" height="623" fill="#A5A3A3"/>
<rect x="81" y="181" width="1531" height="710" rx="24" fill="#D9D9D9"/>
<path d="M92.84 118H85.032V70.384H92.904V90.48C94.888 87.408 98.6 85.424 103.144 85.424C110.952 85.424 115.048 90.352 115.048 98.544V118H107.24V100.4C107.24 95.088 104.616 92.528 100.648 92.528C95.72 92.528 92.84 95.984 92.84 100.72V118ZM126.624 80.048C123.936 80.048 121.824 77.936 121.824 75.312C121.824 72.688 123.936 70.64 126.624 70.64C129.184 70.64 131.296 72.688 131.296 75.312C131.296 77.936 129.184 80.048 126.624 80.048ZM122.72 118V86.384H130.528V118H122.72ZM158.435 86.256V93.488H155.555C149.923 93.488 146.403 96.496 146.403 102.64V118H138.595V86.448H145.955L146.403 91.056C147.747 87.92 150.755 85.808 154.979 85.808C156.067 85.808 157.155 85.936 158.435 86.256ZM160.801 102.128C160.801 92.272 167.905 85.488 177.697 85.488C187.489 85.488 194.593 92.272 194.593 102.128C194.593 111.984 187.489 118.768 177.697 118.768C167.905 118.768 160.801 111.984 160.801 102.128ZM168.609 102.128C168.609 107.888 172.321 111.792 177.697 111.792C183.073 111.792 186.785 107.888 186.785 102.128C186.785 96.368 183.073 92.464 177.697 92.464C172.321 92.464 168.609 96.368 168.609 102.128Z" fill="black"/>
<path d="M766.776 1096.95H762.264V1061.67H766.776V1077.13C768.264 1074.58 771.096 1072.86 774.744 1072.86C780.744 1072.86 783.624 1076.65 783.624 1082.65V1097H779.112V1083.66C779.112 1078.9 776.856 1076.98 773.496 1076.98C769.128 1076.98 766.776 1080.15 766.776 1084.18V1096.95ZM800.001 1097.58C793.089 1097.58 788.337 1092.58 788.337 1085.29C788.337 1077.94 792.993 1072.86 799.809 1072.86C806.481 1072.86 810.849 1077.46 810.849 1084.42V1086.1L792.705 1086.15C793.041 1091.1 795.633 1093.83 800.097 1093.83C803.601 1093.83 805.905 1092.39 806.673 1089.7H810.897C809.745 1094.74 805.809 1097.58 800.001 1097.58ZM799.809 1076.65C795.873 1076.65 793.377 1079 792.801 1083.13H806.337C806.337 1079.24 803.793 1076.65 799.809 1076.65ZM822.519 1097.58C817.479 1097.58 814.503 1094.74 814.503 1090.47C814.503 1086.15 817.719 1083.46 823.239 1083.03L830.631 1082.46V1081.78C830.631 1077.85 828.279 1076.46 825.111 1076.46C821.319 1076.46 819.159 1078.14 819.159 1080.97H815.223C815.223 1076.07 819.255 1072.86 825.303 1072.86C831.111 1072.86 835.047 1075.93 835.047 1082.26V1097H831.207L830.727 1093.21C829.527 1095.9 826.311 1097.58 822.519 1097.58ZM823.815 1094.07C828.087 1094.07 830.679 1091.29 830.679 1086.87V1085.62L824.679 1086.1C820.695 1086.49 819.063 1088.02 819.063 1090.33C819.063 1092.82 820.887 1094.07 823.815 1094.07ZM850.703 1097.58C843.887 1097.58 839.759 1092.49 839.759 1085.34C839.759 1078.14 843.935 1072.86 850.895 1072.86C854.495 1072.86 857.519 1074.44 859.103 1077.32V1061.67H863.567V1097H859.535L859.151 1092.73C857.615 1095.94 854.447 1097.58 850.703 1097.58ZM851.615 1093.5C856.223 1093.5 859.055 1090.09 859.055 1085.19C859.055 1080.39 856.223 1076.94 851.615 1076.94C847.007 1076.94 844.319 1080.39 844.319 1085.19C844.319 1090.04 847.007 1093.5 851.615 1093.5ZM872.285 1067.96C870.653 1067.96 869.309 1066.62 869.309 1064.98C869.309 1063.3 870.653 1062.01 872.285 1062.01C873.917 1062.01 875.261 1063.3 875.261 1064.98C875.261 1066.62 873.917 1067.96 872.285 1067.96ZM870.077 1097V1073.53H874.589V1097H870.077ZM885.651 1097H881.139V1073.53H885.219L885.699 1077.13C887.187 1074.44 890.163 1072.86 893.475 1072.86C899.667 1072.86 902.499 1076.65 902.499 1082.65V1097H897.987V1083.66C897.987 1078.9 895.779 1076.98 892.323 1076.98C888.099 1076.98 885.651 1080.01 885.651 1084.57V1097ZM907.26 1084.66C907.26 1078.04 911.532 1072.86 918.348 1072.86C922.14 1072.86 925.068 1074.58 926.556 1077.51L926.892 1073.53H930.924V1096.04C930.924 1103.43 926.364 1108.14 919.164 1108.14C912.78 1108.14 908.412 1104.54 907.548 1098.58H912.06C912.636 1102.04 915.228 1104.06 919.164 1104.06C923.58 1104.06 926.46 1101.18 926.46 1096.71V1092.01C924.924 1094.74 921.852 1096.38 918.156 1096.38C911.484 1096.38 907.26 1091.24 907.26 1084.66ZM911.772 1084.57C911.772 1088.98 914.508 1092.44 918.924 1092.44C923.484 1092.44 926.268 1089.18 926.268 1084.57C926.268 1080.06 923.58 1076.79 918.972 1076.79C914.46 1076.79 911.772 1080.25 911.772 1084.57Z" fill="black"/>
<rect x="849" y="77" width="192" height="31" fill="#D9D9D9"/>
<rect x="1280" y="77" width="192" height="31" fill="#D9D9D9"/>
<rect x="1502" y="77" width="110" height="31" fill="#D9D9D9"/>
<rect x="1076" y="77" width="169" height="31" fill="#D9D9D9"/>
<rect x="81" y="1178" width="344" height="315" rx="24" fill="#D9D9D9"/>
<rect x="477" y="1178" width="344" height="315" rx="24" fill="#D9D9D9"/>
<rect x="873" y="1178" width="344" height="315" rx="24" fill="#D9D9D9"/>
<rect x="1258" y="1178" width="344" height="315" rx="24" fill="#D9D9D9"/>
</svg>
